<?xml version="1.0" encoding="UTF-8" standalone="no"?>
<!DOCTYPE svg PUBLIC "-//W3C//DTD SVG 1.1//EN"
 "http://www.w3.org/Graphics/SVG/1.1/DTD/svg11.dtd">
<!-- Generated by graphviz version 2.36.0 (20140111.2315)
 -->
<!-- Title: playerUI Pages: 1 -->
<svg width="293pt" height="692pt"
 viewBox="0.00 0.00 293.00 692.00" xmlns="http://www.w3.org/2000/svg" xmlns:xlink="http://www.w3.org/1999/xlink">
<g id="graph0" class="graph" transform="scale(1 1) rotate(0) translate(4 688)">
<title>playerUI</title>
<polygon fill="white" stroke="none" points="-4,4 -4,-688 289,-688 289,4 -4,4"/>
<!-- animationFrames -->
<g id="node1" class="node"><title>animationFrames</title>
<ellipse fill="none" stroke="black" cx="72" cy="-450" rx="72.192" ry="18"/>
<text text-anchor="middle" x="72" y="-446.3" font-family="Times,serif" font-size="14.00">animationFrames</text>
</g>
<!-- stateComponent -->
<g id="node3" class="node"><title>stateComponent</title>
<ellipse fill="none" stroke="black" cx="153" cy="-378" rx="68.3664" ry="18"/>
<text text-anchor="middle" x="153" y="-374.3" font-family="Times,serif" font-size="14.00">stateComponent</text>
</g>
<!-- animationFrames&#45;&gt;stateComponent -->
<g id="edge1" class="edge"><title>animationFrames&#45;&gt;stateComponent</title>
<path fill="none" stroke="black" d="M91.1959,-432.411C101.687,-423.345 114.844,-411.974 126.32,-402.057"/>
<polygon fill="black" stroke="black" points="128.664,-404.657 133.942,-395.47 124.087,-399.36 128.664,-404.657"/>
</g>
<!-- state -->
<g id="node2" class="node"><title>state</title>
<ellipse fill="none" stroke="black" cx="190" cy="-450" rx="27" ry="18"/>
<text text-anchor="middle" x="190" y="-446.3" font-family="Times,serif" font-size="14.00">state</text>
</g>
<!-- state&#45;&gt;stateComponent -->
<g id="edge2" class="edge"><title>state&#45;&gt;stateComponent</title>
<path fill="none" stroke="black" d="M181.418,-432.765C177.063,-424.525 171.667,-414.317 166.751,-405.016"/>
<polygon fill="black" stroke="black" points="169.819,-403.329 162.051,-396.124 163.63,-406.6 169.819,-403.329"/>
</g>
<!-- uiComponents -->
<g id="node4" class="node"><title>uiComponents</title>
<ellipse fill="none" stroke="black" cx="153" cy="-306" rx="62.0922" ry="18"/>
<text text-anchor="middle" x="153" y="-302.3" font-family="Times,serif" font-size="14.00">uiComponents</text>
</g>
<!-- stateComponent&#45;&gt;uiComponents -->
<g id="edge3" class="edge"><title>stateComponent&#45;&gt;uiComponents</title>
<path fill="none" stroke="black" d="M153,-359.697C153,-351.983 153,-342.712 153,-334.112"/>
<polygon fill="black" stroke="black" points="156.5,-334.104 153,-324.104 149.5,-334.104 156.5,-334.104"/>
</g>
<!-- dispatcher -->
<g id="node5" class="node"><title>dispatcher</title>
<ellipse fill="none" stroke="black" cx="153" cy="-234" rx="46.1964" ry="18"/>
<text text-anchor="middle" x="153" y="-230.3" font-family="Times,serif" font-size="14.00">dispatcher</text>
</g>
<!-- uiComponents&#45;&gt;dispatcher -->
<g id="edge4" class="edge"><title>uiComponents&#45;&gt;dispatcher</title>
<path fill="none" stroke="black" d="M153,-287.697C153,-279.983 153,-270.712 153,-262.112"/>
<polygon fill="black" stroke="black" points="156.5,-262.104 153,-252.104 149.5,-262.104 156.5,-262.104"/>
</g>
<!-- clicks -->
<g id="node8" class="node"><title>clicks</title>
<ellipse fill="none" stroke="black" cx="115" cy="-162" rx="31.2965" ry="18"/>
<text text-anchor="middle" x="115" y="-158.3" font-family="Times,serif" font-size="14.00">clicks</text>
</g>
<!-- dispatcher&#45;&gt;clicks -->
<g id="edge6" class="edge"><title>dispatcher&#45;&gt;clicks</title>
<path fill="none" stroke="black" d="M143.801,-216.055C139.254,-207.679 133.676,-197.404 128.644,-188.134"/>
<polygon fill="black" stroke="black" points="131.699,-186.426 123.852,-179.307 125.547,-189.765 131.699,-186.426"/>
</g>
<!-- joins -->
<g id="node9" class="node"><title>joins</title>
<ellipse fill="none" stroke="black" cx="192" cy="-162" rx="27.4223" ry="18"/>
<text text-anchor="middle" x="192" y="-158.3" font-family="Times,serif" font-size="14.00">joins</text>
</g>
<!-- dispatcher&#45;&gt;joins -->
<g id="edge7" class="edge"><title>dispatcher&#45;&gt;joins</title>
<path fill="none" stroke="black" d="M162.441,-216.055C167.107,-207.679 172.832,-197.404 177.997,-188.134"/>
<polygon fill="black" stroke="black" points="181.105,-189.746 182.915,-179.307 174.99,-186.339 181.105,-189.746"/>
</g>
<!-- inboundMessages -->
<g id="node6" class="node"><title>inboundMessages</title>
<ellipse fill="none" stroke="black" cx="179" cy="-594" rx="74.1402" ry="18"/>
<text text-anchor="middle" x="179" y="-590.3" font-family="Times,serif" font-size="14.00">inboundMessages</text>
</g>
<!-- stateMessages -->
<g id="node7" class="node"><title>stateMessages</title>
<ellipse fill="none" stroke="black" cx="76" cy="-522" rx="61.6163" ry="18"/>
<text text-anchor="middle" x="76" y="-518.3" font-family="Times,serif" font-size="14.00">stateMessages</text>
</g>
<!-- inboundMessages&#45;&gt;stateMessages -->
<g id="edge5" class="edge"><title>inboundMessages&#45;&gt;stateMessages</title>
<path fill="none" stroke="black" d="M155.37,-576.941C141.269,-567.358 123.181,-555.065 107.834,-544.635"/>
<polygon fill="black" stroke="black" points="109.403,-541.47 99.1654,-538.743 105.469,-547.259 109.403,-541.47"/>
</g>
<!-- timeDrift -->
<g id="node11" class="node"><title>timeDrift</title>
<ellipse fill="none" stroke="black" cx="200" cy="-522" rx="44.2946" ry="18"/>
<text text-anchor="middle" x="200" y="-518.3" font-family="Times,serif" font-size="14.00">timeDrift</text>
</g>
<!-- inboundMessages&#45;&gt;timeDrift -->
<g id="edge12" class="edge"><title>inboundMessages&#45;&gt;timeDrift</title>
<path fill="none" stroke="black" d="M184.191,-575.697C186.531,-567.898 189.347,-558.509 191.951,-549.829"/>
<polygon fill="black" stroke="black" points="195.348,-550.688 194.869,-540.104 188.643,-548.677 195.348,-550.688"/>
</g>
<!-- stateMessages&#45;&gt;state -->
<g id="edge10" class="edge"><title>stateMessages&#45;&gt;state</title>
<path fill="none" stroke="black" d="M101.3,-505.465C119.339,-494.388 143.589,-479.498 162.174,-468.086"/>
<polygon fill="black" stroke="black" points="164.1,-471.011 170.79,-462.795 160.437,-465.045 164.1,-471.011"/>
</g>
<!-- outboundMessages -->
<g id="node10" class="node"><title>outboundMessages</title>
<ellipse fill="none" stroke="black" cx="174" cy="-90" rx="78.4642" ry="18"/>
<text text-anchor="middle" x="174" y="-86.3" font-family="Times,serif" font-size="14.00">outboundMessages</text>
</g>
<!-- clicks&#45;&gt;outboundMessages -->
<g id="edge8" class="edge"><title>clicks&#45;&gt;outboundMessages</title>
<path fill="none" stroke="black" d="M128.094,-145.465C135.414,-136.78 144.711,-125.75 153.021,-115.891"/>
<polygon fill="black" stroke="black" points="155.935,-117.864 159.704,-107.962 150.583,-113.352 155.935,-117.864"/>
</g>
<!-- joins&#45;&gt;outboundMessages -->
<g id="edge9" class="edge"><title>joins&#45;&gt;outboundMessages</title>
<path fill="none" stroke="black" d="M187.643,-144.055C185.639,-136.261 183.211,-126.822 180.963,-118.079"/>
<polygon fill="black" stroke="black" points="184.322,-117.089 178.442,-108.275 177.543,-118.832 184.322,-117.089"/>
</g>
<!-- sendMessage -->
<g id="node13" class="node"><title>sendMessage</title>
<ellipse fill="none" stroke="black" cx="227" cy="-18" rx="57.2688" ry="18"/>
<text text-anchor="middle" x="227" y="-14.3" font-family="Times,serif" font-size="14.00">sendMessage</text>
</g>
<!-- outboundMessages&#45;&gt;sendMessage -->
<g id="edge14" class="edge"><title>outboundMessages&#45;&gt;sendMessage</title>
<path fill="none" stroke="black" d="M186.83,-72.055C193.21,-63.6287 201.045,-53.2798 208.097,-43.9663"/>
<polygon fill="black" stroke="black" points="211.042,-45.8744 214.288,-35.789 205.461,-41.6489 211.042,-45.8744"/>
</g>
<!-- timeDrift&#45;&gt;state -->
<g id="edge11" class="edge"><title>timeDrift&#45;&gt;state</title>
<path fill="none" stroke="black" d="M197.528,-503.697C196.426,-495.983 195.102,-486.712 193.873,-478.112"/>
<polygon fill="black" stroke="black" points="197.323,-477.509 192.443,-468.104 190.393,-478.499 197.323,-477.509"/>
</g>
<!-- connections -->
<g id="node12" class="node"><title>connections</title>
<ellipse fill="none" stroke="black" cx="230" cy="-666" rx="52.4675" ry="18"/>
<text text-anchor="middle" x="230" y="-662.3" font-family="Times,serif" font-size="14.00">connections</text>
</g>
<!-- connections&#45;&gt;inboundMessages -->
<g id="edge13" class="edge"><title>connections&#45;&gt;inboundMessages</title>
<path fill="none" stroke="black" d="M217.914,-648.411C211.78,-639.992 204.198,-629.585 197.361,-620.201"/>
<polygon fill="black" stroke="black" points="200.071,-617.978 191.354,-611.956 194.414,-622.1 200.071,-617.978"/>
</g>
<!-- connections&#45;&gt;sendMessage -->
<g id="edge15" class="edge"><title>connections&#45;&gt;sendMessage</title>
<path fill="none" stroke="black" d="M242.204,-648.095C248.938,-638.043 256.938,-624.793 262,-612 276.881,-574.39 281,-563.447 281,-523 281,-523 281,-523 281,-161 281,-120.458 276.628,-109.409 261,-72 256.997,-62.4172 251.283,-52.648 245.678,-44.1503"/>
<polygon fill="black" stroke="black" points="248.501,-42.0779 239.955,-35.8163 242.731,-46.0409 248.501,-42.0779"/>
</g>
</g>
</svg>
