<?xml version="1.0" encoding="UTF-8" standalone="no"?>
<!DOCTYPE svg PUBLIC "-//W3C//DTD SVG 1.1//EN"
 "http://www.w3.org/Graphics/SVG/1.1/DTD/svg11.dtd">
<!-- Generated by graphviz version 2.36.0 (20140111.2315)
 -->
<!-- Title: status Pages: 1 -->
<svg width="208pt" height="332pt"
 viewBox="0.00 0.00 207.89 332.00" xmlns="http://www.w3.org/2000/svg" xmlns:xlink="http://www.w3.org/1999/xlink">
<g id="graph0" class="graph" transform="scale(1 1) rotate(0) translate(4 328)">
<title>status</title>
<polygon fill="white" stroke="none" points="-4,4 -4,-328 203.892,-328 203.892,4 -4,4"/>
<!-- waits -->
<g id="node1" class="node"><title>waits</title>
<ellipse fill="none" stroke="black" cx="68.8921" cy="-234" rx="29.3722" ry="18"/>
<text text-anchor="middle" x="68.8921" y="-230.3" font-family="Times,serif" font-size="14.00">waits</text>
</g>
<!-- timers -->
<g id="node4" class="node"><title>timers</title>
<ellipse fill="none" stroke="black" cx="68.8921" cy="-162" rx="33.2209" ry="18"/>
<text text-anchor="middle" x="68.8921" y="-158.3" font-family="Times,serif" font-size="14.00">timers</text>
</g>
<!-- waits&#45;&gt;timers -->
<g id="edge1" class="edge"><title>waits&#45;&gt;timers</title>
<path fill="none" stroke="black" stroke-dasharray="1,5" d="M63.0139,-216.055C61.846,-205.049 61.8516,-190.764 63.0305,-179.789"/>
</g>
<!-- status -->
<g id="node7" class="node"><title>status</title>
<ellipse fill="none" stroke="black" cx="68.8921" cy="-18" rx="30.3206" ry="18"/>
<text text-anchor="middle" x="68.8921" y="-14.3" font-family="Times,serif" font-size="14.00">status</text>
</g>
<!-- waits&#45;&gt;status -->
<g id="edge10" class="edge"><title>waits&#45;&gt;status</title>
<path fill="none" stroke="black" d="M55.0806,-218.087C30.2251,-189.35 -17.2983,-124.503 6.89212,-72 13.6326,-57.3703 26.624,-45.2776 38.9804,-36.3557"/>
<polygon fill="black" stroke="black" points="41.028,-39.1962 47.3488,-30.6934 37.1051,-33.3986 41.028,-39.1962"/>
</g>
<!-- countdowns -->
<g id="node2" class="node"><title>countdowns</title>
<ellipse fill="none" stroke="black" cx="68.8921" cy="-90" rx="52.9443" ry="18"/>
<text text-anchor="middle" x="68.8921" y="-86.3" font-family="Times,serif" font-size="14.00">countdowns</text>
</g>
<!-- countdowns&#45;&gt;timers -->
<g id="edge2" class="edge"><title>countdowns&#45;&gt;timers</title>
<path fill="none" stroke="black" stroke-dasharray="1,5" d="M74.8049,-108.275C75.9326,-119.183 75.9211,-133.211 74.7704,-144.055"/>
</g>
<!-- countdowns&#45;&gt;status -->
<g id="edge11" class="edge"><title>countdowns&#45;&gt;status</title>
<path fill="none" stroke="black" d="M68.8921,-71.6966C68.8921,-63.9827 68.8921,-54.7125 68.8921,-46.1124"/>
<polygon fill="black" stroke="black" points="72.3922,-46.1043 68.8921,-36.1043 65.3922,-46.1044 72.3922,-46.1043"/>
</g>
<!-- starts -->
<g id="node3" class="node"><title>starts</title>
<ellipse fill="none" stroke="black" cx="169.892" cy="-90" rx="29.3722" ry="18"/>
<text text-anchor="middle" x="169.892" y="-86.3" font-family="Times,serif" font-size="14.00">starts</text>
</g>
<!-- starts&#45;&gt;timers -->
<g id="edge3" class="edge"><title>starts&#45;&gt;timers</title>
<path fill="none" stroke="black" stroke-dasharray="1,5" d="M154.599,-105.472C137.778,-118.274 111.023,-136.742 91.7518,-148.807"/>
</g>
<!-- starts&#45;&gt;status -->
<g id="edge12" class="edge"><title>starts&#45;&gt;status</title>
<path fill="none" stroke="black" d="M150.895,-75.8335C135.518,-65.1763 113.653,-50.0224 96.3675,-38.0423"/>
<polygon fill="black" stroke="black" points="98.017,-34.9271 87.8043,-32.1074 94.0295,-40.6805 98.017,-34.9271"/>
</g>
<!-- timers&#45;&gt;waits -->
<g id="edge7" class="edge"><title>timers&#45;&gt;waits</title>
<path fill="none" stroke="black" d="M74.7537,-179.789C75.5919,-187.591 75.837,-197.067 75.489,-205.848"/>
<polygon fill="black" stroke="black" points="71.9814,-205.834 74.7704,-216.055 78.9641,-206.325 71.9814,-205.834"/>
</g>
<!-- timers&#45;&gt;countdowns -->
<g id="edge4" class="edge"><title>timers&#45;&gt;countdowns</title>
<path fill="none" stroke="black" d="M63.0139,-144.055C62.1958,-136.346 61.9535,-127.027 62.287,-118.364"/>
<polygon fill="black" stroke="black" points="65.7864,-118.491 62.9793,-108.275 58.8028,-118.012 65.7864,-118.491"/>
</g>
<!-- timers&#45;&gt;starts -->
<g id="edge5" class="edge"><title>timers&#45;&gt;starts</title>
<path fill="none" stroke="black" d="M84.6756,-146.155C99.4915,-134.911 121.713,-119.459 139.837,-107.769"/>
<polygon fill="black" stroke="black" points="141.783,-110.679 148.354,-102.368 138.035,-104.768 141.783,-110.679"/>
</g>
<!-- roster -->
<g id="node5" class="node"><title>roster</title>
<ellipse fill="none" stroke="black" cx="169.892" cy="-306" rx="30.3206" ry="18"/>
<text text-anchor="middle" x="169.892" y="-302.3" font-family="Times,serif" font-size="14.00">roster</text>
</g>
<!-- roster&#45;&gt;waits -->
<g id="edge8" class="edge"><title>roster&#45;&gt;waits</title>
<path fill="none" stroke="black" d="M150.895,-291.834C135.421,-281.109 113.376,-265.83 96.0398,-253.815"/>
<polygon fill="black" stroke="black" points="97.6758,-250.691 87.463,-247.871 93.6883,-256.444 97.6758,-250.691"/>
</g>
<!-- roster&#45;&gt;starts -->
<g id="edge6" class="edge"><title>roster&#45;&gt;starts</title>
<path fill="none" stroke="black" d="M169.892,-287.849C169.892,-250.832 169.892,-163.181 169.892,-118.386"/>
<polygon fill="black" stroke="black" points="173.392,-118.232 169.892,-108.232 166.392,-118.232 173.392,-118.232"/>
</g>
<!-- serverStarts -->
<g id="node6" class="node"><title>serverStarts</title>
<ellipse fill="none" stroke="black" cx="68.8921" cy="-306" rx="51.4931" ry="18"/>
<text text-anchor="middle" x="68.8921" y="-302.3" font-family="Times,serif" font-size="14.00">serverStarts</text>
</g>
<!-- serverStarts&#45;&gt;waits -->
<g id="edge9" class="edge"><title>serverStarts&#45;&gt;waits</title>
<path fill="none" stroke="black" d="M68.8921,-287.697C68.8921,-279.983 68.8921,-270.712 68.8921,-262.112"/>
<polygon fill="black" stroke="black" points="72.3922,-262.104 68.8921,-252.104 65.3922,-262.104 72.3922,-262.104"/>
</g>
</g>
</svg>
