<?xml version="1.0" encoding="UTF-8" standalone="no"?>
<!DOCTYPE svg PUBLIC "-//W3C//DTD SVG 1.1//EN"
 "http://www.w3.org/Graphics/SVG/1.1/DTD/svg11.dtd">
<!-- Generated by graphviz version 2.36.0 (20140111.2315)
 -->
<!-- Title: G Pages: 1 -->
<svg width="460pt" height="836pt"
 viewBox="0.00 0.00 460.21 836.00" xmlns="http://www.w3.org/2000/svg" xmlns:xlink="http://www.w3.org/1999/xlink">
<g id="graph0" class="graph" transform="scale(1 1) rotate(0) translate(4 832)">
<title>G</title>
<polygon fill="white" stroke="none" points="-4,4 -4,-832 456.209,-832 456.209,4 -4,4"/>
<!-- webServer -->
<g id="node1" class="node"><title>webServer</title>
<ellipse fill="#7fff7f" stroke="black" cx="95" cy="-810" rx="48.1437" ry="18"/>
<text text-anchor="middle" x="95" y="-806.3" font-family="Times,serif" font-size="14.00">webServer</text>
</g>
<!-- socketServer -->
<g id="node2" class="node"><title>socketServer</title>
<ellipse fill="#7fff7f" stroke="black" cx="153" cy="-738" rx="55.3436" ry="18"/>
<text text-anchor="middle" x="153" y="-734.3" font-family="Times,serif" font-size="14.00">socketServer</text>
</g>
<!-- webServer&#45;&gt;socketServer -->
<g id="edge1" class="edge"><title>webServer&#45;&gt;socketServer</title>
<path fill="none" stroke="black" d="M108.745,-792.411C115.968,-783.693 124.957,-772.845 132.942,-763.208"/>
<polygon fill="black" stroke="black" points="135.668,-765.403 139.353,-755.47 130.278,-760.937 135.668,-765.403"/>
</g>
<!-- status -->
<g id="node16" class="node"><title>status</title>
<ellipse fill="none" stroke="black" cx="191" cy="-378" rx="30.3206" ry="18"/>
<text text-anchor="middle" x="191" y="-374.3" font-family="Times,serif" font-size="14.00">status</text>
</g>
<!-- webServer&#45;&gt;status -->
<g id="edge18" class="edge"><title>webServer&#45;&gt;status</title>
<path fill="none" stroke="black" d="M83.4652,-792.384C66.8096,-766.722 38,-715.348 38,-667 38,-667 38,-667 38,-521 38,-456.682 111.536,-413.295 156.647,-392.73"/>
<polygon fill="black" stroke="black" points="158.339,-395.809 166.077,-388.572 155.515,-389.404 158.339,-395.809"/>
</g>
<!-- connections -->
<g id="node3" class="node"><title>connections</title>
<ellipse fill="#7fff7f" stroke="black" cx="184" cy="-666" rx="52.4675" ry="18"/>
<text text-anchor="middle" x="184" y="-662.3" font-family="Times,serif" font-size="14.00">connections</text>
</g>
<!-- socketServer&#45;&gt;connections -->
<g id="edge2" class="edge"><title>socketServer&#45;&gt;connections</title>
<path fill="none" stroke="black" d="M160.504,-720.055C164.031,-712.091 168.318,-702.411 172.26,-693.51"/>
<polygon fill="black" stroke="black" points="175.5,-694.836 176.35,-684.275 169.1,-692.002 175.5,-694.836"/>
</g>
<!-- disconnections -->
<g id="node4" class="node"><title>disconnections</title>
<ellipse fill="none" stroke="black" cx="184" cy="-594" rx="63.0666" ry="18"/>
<text text-anchor="middle" x="184" y="-590.3" font-family="Times,serif" font-size="14.00">disconnections</text>
</g>
<!-- connections&#45;&gt;disconnections -->
<g id="edge3" class="edge"><title>connections&#45;&gt;disconnections</title>
<path fill="none" stroke="black" d="M184,-647.697C184,-639.983 184,-630.712 184,-622.112"/>
<polygon fill="black" stroke="black" points="187.5,-622.104 184,-612.104 180.5,-622.104 187.5,-622.104"/>
</g>
<!-- allClients -->
<g id="node5" class="node"><title>allClients</title>
<ellipse fill="none" stroke="black" cx="110" cy="-522" rx="44.2946" ry="18"/>
<text text-anchor="middle" x="110" y="-518.3" font-family="Times,serif" font-size="14.00">allClients</text>
</g>
<!-- connections&#45;&gt;allClients -->
<g id="edge4" class="edge"><title>connections&#45;&gt;allClients</title>
<path fill="none" stroke="black" d="M153.764,-651.092C138.324,-642.255 120.948,-629.215 112,-612 102.168,-593.085 102.35,-568.717 104.61,-550.262"/>
<polygon fill="black" stroke="black" points="108.102,-550.573 106.12,-540.165 101.179,-549.537 108.102,-550.573"/>
</g>
<!-- inboundMessages -->
<g id="node6" class="node"><title>inboundMessages</title>
<ellipse fill="#7fff7f" stroke="black" cx="342" cy="-594" rx="74.1402" ry="18"/>
<text text-anchor="middle" x="342" y="-590.3" font-family="Times,serif" font-size="14.00">inboundMessages</text>
</g>
<!-- connections&#45;&gt;inboundMessages -->
<g id="edge6" class="edge"><title>connections&#45;&gt;inboundMessages</title>
<path fill="none" stroke="black" d="M214.839,-651.337C238.674,-640.777 271.968,-626.027 298.509,-614.268"/>
<polygon fill="black" stroke="black" points="300.227,-617.335 307.952,-610.085 297.391,-610.935 300.227,-617.335"/>
</g>
<!-- initStates -->
<g id="node13" class="node"><title>initStates</title>
<ellipse fill="none" stroke="black" cx="313" cy="-162" rx="43.319" ry="18"/>
<text text-anchor="middle" x="313" y="-158.3" font-family="Times,serif" font-size="14.00">initStates</text>
</g>
<!-- connections&#45;&gt;initStates -->
<g id="edge11" class="edge"><title>connections&#45;&gt;initStates</title>
<path fill="none" stroke="black" d="M233.382,-660.022C295.551,-652.785 397.558,-637.379 425,-612 455.347,-583.934 452,-564.336 452,-523 452,-523 452,-523 452,-305 452,-246.468 390.943,-203.147 349.762,-180.586"/>
<polygon fill="black" stroke="black" points="351.268,-177.423 340.795,-175.825 347.986,-183.605 351.268,-177.423"/>
</g>
<!-- disconnections&#45;&gt;allClients -->
<g id="edge5" class="edge"><title>disconnections&#45;&gt;allClients</title>
<path fill="none" stroke="black" d="M166.463,-576.411C156.764,-567.237 144.572,-555.703 134.001,-545.703"/>
<polygon fill="black" stroke="black" points="136.319,-543.078 126.649,-538.749 131.508,-548.164 136.319,-543.078"/>
</g>
<!-- roster -->
<g id="node15" class="node"><title>roster</title>
<ellipse fill="#7fff7f" stroke="black" cx="250" cy="-450" rx="30.3206" ry="18"/>
<text text-anchor="middle" x="250" y="-446.3" font-family="Times,serif" font-size="14.00">roster</text>
</g>
<!-- disconnections&#45;&gt;roster -->
<g id="edge15" class="edge"><title>disconnections&#45;&gt;roster</title>
<path fill="none" stroke="black" d="M184.504,-575.702C185.667,-557.079 189.374,-527.031 201,-504 207,-492.114 216.46,-480.965 225.475,-471.988"/>
<polygon fill="black" stroke="black" points="228.007,-474.41 232.856,-464.99 223.191,-469.33 228.007,-474.41"/>
</g>
<!-- stateBroadcasts -->
<g id="node14" class="node"><title>stateBroadcasts</title>
<ellipse fill="#7fff7f" stroke="black" cx="186" cy="-162" rx="65.4659" ry="18"/>
<text text-anchor="middle" x="186" y="-158.3" font-family="Times,serif" font-size="14.00">stateBroadcasts</text>
</g>
<!-- allClients&#45;&gt;stateBroadcasts -->
<g id="edge13" class="edge"><title>allClients&#45;&gt;stateBroadcasts</title>
<path fill="none" stroke="black" d="M87.4744,-506.302C55.2925,-483.32 0,-435.6 0,-379 0,-379 0,-379 0,-305 0,-237.931 77.3506,-198.311 132.289,-178.63"/>
<polygon fill="black" stroke="black" points="133.614,-181.875 141.921,-175.299 131.326,-175.26 133.614,-181.875"/>
</g>
<!-- clicks -->
<g id="node9" class="node"><title>clicks</title>
<ellipse fill="none" stroke="black" cx="371" cy="-450" rx="31.2965" ry="18"/>
<text text-anchor="middle" x="371" y="-446.3" font-family="Times,serif" font-size="14.00">clicks</text>
</g>
<!-- inboundMessages&#45;&gt;clicks -->
<g id="edge8" class="edge"><title>inboundMessages&#45;&gt;clicks</title>
<path fill="none" stroke="black" d="M364.666,-576.833C375.764,-567.486 388.002,-554.677 394,-540 402.456,-519.308 394.774,-494.617 386.082,-476.497"/>
<polygon fill="black" stroke="black" points="388.957,-474.438 381.245,-467.173 382.743,-477.661 388.957,-474.438"/>
</g>
<!-- joinings -->
<g id="node10" class="node"><title>joinings</title>
<ellipse fill="#7fff7f" stroke="black" cx="347" cy="-522" rx="38.4949" ry="18"/>
<text text-anchor="middle" x="347" y="-518.3" font-family="Times,serif" font-size="14.00">joinings</text>
</g>
<!-- inboundMessages&#45;&gt;joinings -->
<g id="edge9" class="edge"><title>inboundMessages&#45;&gt;joinings</title>
<path fill="none" stroke="black" d="M343.236,-575.697C343.787,-567.983 344.449,-558.712 345.063,-550.112"/>
<polygon fill="black" stroke="black" points="348.557,-550.328 345.778,-540.104 341.575,-549.83 348.557,-550.328"/>
</g>
<!-- leavings -->
<g id="node11" class="node"><title>leavings</title>
<ellipse fill="none" stroke="black" cx="250" cy="-522" rx="39.9464" ry="18"/>
<text text-anchor="middle" x="250" y="-518.3" font-family="Times,serif" font-size="14.00">leavings</text>
</g>
<!-- inboundMessages&#45;&gt;leavings -->
<g id="edge10" class="edge"><title>inboundMessages&#45;&gt;leavings</title>
<path fill="none" stroke="black" d="M320.197,-576.411C307.436,-566.702 291.202,-554.35 277.561,-543.97"/>
<polygon fill="black" stroke="black" points="279.534,-541.074 269.456,-537.804 275.295,-546.644 279.534,-541.074"/>
</g>
<!-- outboundMessages -->
<g id="node7" class="node"><title>outboundMessages</title>
<ellipse fill="#7fff7f" stroke="black" cx="249" cy="-90" rx="78.4642" ry="18"/>
<text text-anchor="middle" x="249" y="-86.3" font-family="Times,serif" font-size="14.00">outboundMessages</text>
</g>
<!-- socketSend -->
<g id="node8" class="node"><title>socketSend</title>
<ellipse fill="#7fff7f" stroke="black" cx="249" cy="-18" rx="50.5427" ry="18"/>
<text text-anchor="middle" x="249" y="-14.3" font-family="Times,serif" font-size="14.00">socketSend</text>
</g>
<!-- outboundMessages&#45;&gt;socketSend -->
<g id="edge7" class="edge"><title>outboundMessages&#45;&gt;socketSend</title>
<path fill="none" stroke="black" d="M249,-71.6966C249,-63.9827 249,-54.7125 249,-46.1124"/>
<polygon fill="black" stroke="black" points="252.5,-46.1043 249,-36.1043 245.5,-46.1044 252.5,-46.1043"/>
</g>
<!-- scores -->
<g id="node17" class="node"><title>scores</title>
<ellipse fill="none" stroke="black" cx="310" cy="-306" rx="32.2457" ry="18"/>
<text text-anchor="middle" x="310" y="-302.3" font-family="Times,serif" font-size="14.00">scores</text>
</g>
<!-- clicks&#45;&gt;scores -->
<g id="edge20" class="edge"><title>clicks&#45;&gt;scores</title>
<path fill="none" stroke="black" d="M363.883,-432.433C353.425,-408.088 333.8,-362.404 321.342,-333.402"/>
<polygon fill="black" stroke="black" points="324.424,-331.708 317.261,-323.902 317.992,-334.471 324.424,-331.708"/>
</g>
<!-- joinings&#45;&gt;roster -->
<g id="edge16" class="edge"><title>joinings&#45;&gt;roster</title>
<path fill="none" stroke="black" d="M326.902,-506.496C312.387,-496.021 292.632,-481.766 276.78,-470.326"/>
<polygon fill="black" stroke="black" points="278.589,-467.315 268.432,-464.302 274.493,-472.992 278.589,-467.315"/>
</g>
<!-- leavings&#45;&gt;roster -->
<g id="edge17" class="edge"><title>leavings&#45;&gt;roster</title>
<path fill="none" stroke="black" d="M250,-503.697C250,-495.983 250,-486.712 250,-478.112"/>
<polygon fill="black" stroke="black" points="253.5,-478.104 250,-468.104 246.5,-478.104 253.5,-478.104"/>
</g>
<!-- state -->
<g id="node12" class="node"><title>state</title>
<ellipse fill="#7fff7f" stroke="black" cx="250" cy="-234" rx="27" ry="18"/>
<text text-anchor="middle" x="250" y="-230.3" font-family="Times,serif" font-size="14.00">state</text>
</g>
<!-- state&#45;&gt;initStates -->
<g id="edge12" class="edge"><title>state&#45;&gt;initStates</title>
<path fill="none" stroke="black" d="M263.361,-218.155C271.535,-209.072 282.181,-197.243 291.517,-186.87"/>
<polygon fill="black" stroke="black" points="294.25,-189.065 298.339,-179.29 289.047,-184.382 294.25,-189.065"/>
</g>
<!-- state&#45;&gt;stateBroadcasts -->
<g id="edge14" class="edge"><title>state&#45;&gt;stateBroadcasts</title>
<path fill="none" stroke="black" d="M236.427,-218.155C228.24,-209.2 217.612,-197.576 208.225,-187.309"/>
<polygon fill="black" stroke="black" points="210.681,-184.808 201.35,-179.789 205.515,-189.531 210.681,-184.808"/>
</g>
<!-- initStates&#45;&gt;outboundMessages -->
<g id="edge26" class="edge"><title>initStates&#45;&gt;outboundMessages</title>
<path fill="none" stroke="black" d="M298.156,-144.765C290.231,-136.096 280.312,-125.248 271.464,-115.57"/>
<polygon fill="black" stroke="black" points="273.987,-113.143 264.656,-108.124 268.821,-117.866 273.987,-113.143"/>
</g>
<!-- stateBroadcasts&#45;&gt;outboundMessages -->
<g id="edge27" class="edge"><title>stateBroadcasts&#45;&gt;outboundMessages</title>
<path fill="none" stroke="black" d="M200.93,-144.411C208.662,-135.82 218.257,-125.159 226.835,-115.627"/>
<polygon fill="black" stroke="black" points="229.651,-117.731 233.739,-107.956 224.448,-113.048 229.651,-117.731"/>
</g>
<!-- roster&#45;&gt;state -->
<g id="edge23" class="edge"><title>roster&#45;&gt;state</title>
<path fill="none" stroke="black" d="M250,-431.849C250,-394.832 250,-307.181 250,-262.386"/>
<polygon fill="black" stroke="black" points="253.5,-262.232 250,-252.232 246.5,-262.232 253.5,-262.232"/>
</g>
<!-- roster&#45;&gt;status -->
<g id="edge19" class="edge"><title>roster&#45;&gt;status</title>
<path fill="none" stroke="black" d="M236.906,-433.465C229.191,-424.311 219.281,-412.554 210.645,-402.307"/>
<polygon fill="black" stroke="black" points="213.178,-399.882 204.057,-394.492 207.826,-404.394 213.178,-399.882"/>
</g>
<!-- roster&#45;&gt;scores -->
<g id="edge21" class="edge"><title>roster&#45;&gt;scores</title>
<path fill="none" stroke="black" d="M257,-432.433C267.287,-408.088 286.59,-362.404 298.844,-333.402"/>
<polygon fill="black" stroke="black" points="302.19,-334.475 302.858,-323.902 295.742,-331.751 302.19,-334.475"/>
</g>
<!-- status&#45;&gt;state -->
<g id="edge24" class="edge"><title>status&#45;&gt;state</title>
<path fill="none" stroke="black" d="M197.884,-360.433C208.053,-335.957 227.185,-289.912 239.224,-260.936"/>
<polygon fill="black" stroke="black" points="242.555,-262.039 243.16,-251.462 236.091,-259.353 242.555,-262.039"/>
</g>
<!-- status&#45;&gt;scores -->
<g id="edge22" class="edge"><title>status&#45;&gt;scores</title>
<path fill="none" stroke="black" d="M211.728,-364.807C230.607,-353.702 258.708,-337.172 280.031,-324.629"/>
<polygon fill="black" stroke="black" points="281.863,-327.612 288.708,-319.525 278.314,-321.578 281.863,-327.612"/>
</g>
<!-- scores&#45;&gt;state -->
<g id="edge25" class="edge"><title>scores&#45;&gt;state</title>
<path fill="none" stroke="black" d="M296.684,-289.465C288.729,-280.184 278.48,-268.227 269.612,-257.881"/>
<polygon fill="black" stroke="black" points="272.032,-255.326 262.867,-250.011 266.717,-259.882 272.032,-255.326"/>
</g>
</g>
</svg>
