<?xml version="1.0" encoding="UTF-8" standalone="no"?>
<!DOCTYPE svg PUBLIC "-//W3C//DTD SVG 1.1//EN"
 "http://www.w3.org/Graphics/SVG/1.1/DTD/svg11.dtd">
<!-- Generated by graphviz version 2.36.0 (20140111.2315)
 -->
<!-- Title: status Pages: 1 -->
<svg width="471pt" height="692pt"
 viewBox="0.00 0.00 471.00 692.00" xmlns="http://www.w3.org/2000/svg" xmlns:xlink="http://www.w3.org/1999/xlink">
<g id="graph0" class="graph" transform="scale(1 1) rotate(0) translate(4 688)">
<title>status</title>
<polygon fill="white" stroke="none" points="-4,4 -4,-688 467,-688 467,4 -4,4"/>
<!-- roster -->
<g id="node1" class="node"><title>roster</title>
<ellipse fill="none" stroke="black" cx="71" cy="-666" rx="30.3206" ry="18"/>
<text text-anchor="middle" x="71" y="-662.3" font-family="Times,serif" font-size="14.00">roster</text>
</g>
<!-- haveCompetitors -->
<g id="node2" class="node"><title>haveCompetitors</title>
<ellipse fill="none" stroke="black" cx="71" cy="-594" rx="71.2405" ry="18"/>
<text text-anchor="middle" x="71" y="-590.3" font-family="Times,serif" font-size="14.00">haveCompetitors</text>
</g>
<!-- roster&#45;&gt;haveCompetitors -->
<g id="edge1" class="edge"><title>roster&#45;&gt;haveCompetitors</title>
<path fill="none" stroke="black" d="M71,-647.697C71,-639.983 71,-630.712 71,-622.112"/>
<polygon fill="black" stroke="black" points="74.5001,-622.104 71,-612.104 67.5001,-622.104 74.5001,-622.104"/>
</g>
<!-- unsuccessfulWaits -->
<g id="node4" class="node"><title>unsuccessfulWaits</title>
<ellipse fill="none" stroke="black" cx="124" cy="-522" rx="76.5394" ry="18"/>
<text text-anchor="middle" x="124" y="-518.3" font-family="Times,serif" font-size="14.00">unsuccessfulWaits</text>
</g>
<!-- haveCompetitors&#45;&gt;unsuccessfulWaits -->
<g id="edge8" class="edge"><title>haveCompetitors&#45;&gt;unsuccessfulWaits</title>
<path fill="none" stroke="black" d="M83.8298,-576.055C90.2097,-567.629 98.0453,-557.28 105.097,-547.966"/>
<polygon fill="black" stroke="black" points="108.042,-549.874 111.288,-539.789 102.461,-545.649 108.042,-549.874"/>
</g>
<!-- successfulWaits -->
<g id="node8" class="node"><title>successfulWaits</title>
<ellipse fill="none" stroke="black" cx="107" cy="-306" rx="67.3907" ry="18"/>
<text text-anchor="middle" x="107" y="-302.3" font-family="Times,serif" font-size="14.00">successfulWaits</text>
</g>
<!-- haveCompetitors&#45;&gt;successfulWaits -->
<g id="edge6" class="edge"><title>haveCompetitors&#45;&gt;successfulWaits</title>
<path fill="none" stroke="black" d="M57.0175,-576.038C49.8068,-566.176 41.754,-553.131 38,-540 26.0725,-498.277 9.77048,-433.963 46,-360 51.9409,-347.872 62.0394,-337.37 72.3287,-328.987"/>
<polygon fill="black" stroke="black" points="74.7117,-331.572 80.5456,-322.728 70.4698,-326.003 74.7117,-331.572"/>
</g>
<!-- serverStarts -->
<g id="node3" class="node"><title>serverStarts</title>
<ellipse fill="none" stroke="black" cx="271" cy="-522" rx="51.4931" ry="18"/>
<text text-anchor="middle" x="271" y="-518.3" font-family="Times,serif" font-size="14.00">serverStarts</text>
</g>
<!-- startedWaits -->
<g id="node6" class="node"><title>startedWaits</title>
<ellipse fill="none" stroke="black" cx="203" cy="-450" rx="55.3682" ry="18"/>
<text text-anchor="middle" x="203" y="-446.3" font-family="Times,serif" font-size="14.00">startedWaits</text>
</g>
<!-- serverStarts&#45;&gt;startedWaits -->
<g id="edge2" class="edge"><title>serverStarts&#45;&gt;startedWaits</title>
<path fill="none" stroke="black" d="M255.229,-504.765C246.599,-495.882 235.746,-484.709 226.172,-474.854"/>
<polygon fill="black" stroke="black" points="228.637,-472.367 219.158,-467.633 223.616,-477.245 228.637,-472.367"/>
</g>
<!-- unsuccessfulWaits&#45;&gt;startedWaits -->
<g id="edge3" class="edge"><title>unsuccessfulWaits&#45;&gt;startedWaits</title>
<path fill="none" stroke="black" d="M142.722,-504.411C152.929,-495.367 165.724,-484.03 176.896,-474.13"/>
<polygon fill="black" stroke="black" points="179.522,-476.48 184.685,-467.228 174.879,-471.241 179.522,-476.48"/>
</g>
<!-- finishedRounds -->
<g id="node5" class="node"><title>finishedRounds</title>
<ellipse fill="none" stroke="black" cx="257" cy="-18" rx="65.4659" ry="18"/>
<text text-anchor="middle" x="257" y="-14.3" font-family="Times,serif" font-size="14.00">finishedRounds</text>
</g>
<!-- finishedRounds&#45;&gt;startedWaits -->
<g id="edge4" class="edge"><title>finishedRounds&#45;&gt;startedWaits</title>
<path fill="none" stroke="black" d="M245.811,-36.1301C229.994,-62.0431 203,-113.261 203,-161 203,-307 203,-307 203,-307 203,-347.004 203,-393.347 203,-421.92"/>
<polygon fill="black" stroke="black" points="199.5,-421.951 203,-431.951 206.5,-421.951 199.5,-421.951"/>
</g>
<!-- finishedWaits -->
<g id="node7" class="node"><title>finishedWaits</title>
<ellipse fill="none" stroke="black" cx="115" cy="-378" rx="59.1941" ry="18"/>
<text text-anchor="middle" x="115" y="-374.3" font-family="Times,serif" font-size="14.00">finishedWaits</text>
</g>
<!-- startedWaits&#45;&gt;finishedWaits -->
<g id="edge5" class="edge"><title>startedWaits&#45;&gt;finishedWaits</title>
<path fill="none" stroke="black" d="M183.031,-433.116C171.301,-423.785 156.283,-411.838 143.342,-401.545"/>
<polygon fill="black" stroke="black" points="145.199,-398.55 135.194,-395.064 140.841,-404.028 145.199,-398.55"/>
</g>
<!-- status -->
<g id="node12" class="node"><title>status</title>
<ellipse fill="none" stroke="black" cx="425" cy="-18" rx="30.3206" ry="18"/>
<text text-anchor="middle" x="425" y="-14.3" font-family="Times,serif" font-size="14.00">status</text>
</g>
<!-- startedWaits&#45;&gt;status -->
<g id="edge14" class="edge"><title>startedWaits&#45;&gt;status</title>
<path fill="none" stroke="black" d="M254.99,-443.818C330.865,-433.065 463,-400.864 463,-307 463,-307 463,-307 463,-161 463,-119.406 447.597,-73.217 436.404,-45.1433"/>
<polygon fill="black" stroke="black" points="439.546,-43.5807 432.508,-35.662 433.072,-46.2418 439.546,-43.5807"/>
</g>
<!-- finishedWaits&#45;&gt;unsuccessfulWaits -->
<g id="edge9" class="edge"><title>finishedWaits&#45;&gt;unsuccessfulWaits</title>
<path fill="none" stroke="black" d="M116.089,-396.189C117.625,-420.424 120.444,-464.888 122.268,-493.679"/>
<polygon fill="black" stroke="black" points="118.789,-494.113 122.914,-503.871 125.775,-493.67 118.789,-494.113"/>
</g>
<!-- finishedWaits&#45;&gt;successfulWaits -->
<g id="edge7" class="edge"><title>finishedWaits&#45;&gt;successfulWaits</title>
<path fill="none" stroke="black" d="M113.022,-359.697C112.141,-351.983 111.081,-342.712 110.099,-334.112"/>
<polygon fill="black" stroke="black" points="113.568,-333.642 108.955,-324.104 106.613,-334.437 113.568,-333.642"/>
</g>
<!-- startedCountdowns -->
<g id="node9" class="node"><title>startedCountdowns</title>
<ellipse fill="none" stroke="black" cx="314" cy="-234" rx="78.4642" ry="18"/>
<text text-anchor="middle" x="314" y="-230.3" font-family="Times,serif" font-size="14.00">startedCountdowns</text>
</g>
<!-- successfulWaits&#45;&gt;startedCountdowns -->
<g id="edge10" class="edge"><title>successfulWaits&#45;&gt;startedCountdowns</title>
<path fill="none" stroke="black" d="M146.912,-291.503C179.665,-280.427 226.289,-264.661 261.968,-252.595"/>
<polygon fill="black" stroke="black" points="263.369,-255.817 271.72,-249.297 261.126,-249.185 263.369,-255.817"/>
</g>
<!-- finishedCountdowns -->
<g id="node10" class="node"><title>finishedCountdowns</title>
<ellipse fill="none" stroke="black" cx="314" cy="-162" rx="83.2892" ry="18"/>
<text text-anchor="middle" x="314" y="-158.3" font-family="Times,serif" font-size="14.00">finishedCountdowns</text>
</g>
<!-- startedCountdowns&#45;&gt;finishedCountdowns -->
<g id="edge11" class="edge"><title>startedCountdowns&#45;&gt;finishedCountdowns</title>
<path fill="none" stroke="black" d="M314,-215.697C314,-207.983 314,-198.712 314,-190.112"/>
<polygon fill="black" stroke="black" points="317.5,-190.104 314,-180.104 310.5,-190.104 317.5,-190.104"/>
</g>
<!-- startedCountdowns&#45;&gt;status -->
<g id="edge15" class="edge"><title>startedCountdowns&#45;&gt;status</title>
<path fill="none" stroke="black" d="M356.366,-218.584C374.583,-210.191 394.333,-197.699 406,-180 432.697,-139.5 432.059,-80.5597 428.792,-46.3648"/>
<polygon fill="black" stroke="black" points="432.244,-45.743 427.67,-36.1868 425.286,-46.5101 432.244,-45.743"/>
</g>
<!-- startedRounds -->
<g id="node11" class="node"><title>startedRounds</title>
<ellipse fill="none" stroke="black" cx="314" cy="-90" rx="61.1419" ry="18"/>
<text text-anchor="middle" x="314" y="-86.3" font-family="Times,serif" font-size="14.00">startedRounds</text>
</g>
<!-- finishedCountdowns&#45;&gt;startedRounds -->
<g id="edge12" class="edge"><title>finishedCountdowns&#45;&gt;startedRounds</title>
<path fill="none" stroke="black" d="M314,-143.697C314,-135.983 314,-126.712 314,-118.112"/>
<polygon fill="black" stroke="black" points="317.5,-118.104 314,-108.104 310.5,-118.104 317.5,-118.104"/>
</g>
<!-- startedRounds&#45;&gt;finishedRounds -->
<g id="edge13" class="edge"><title>startedRounds&#45;&gt;finishedRounds</title>
<path fill="none" stroke="black" d="M300.492,-72.411C293.566,-63.9056 284.989,-53.3724 277.287,-43.9138"/>
<polygon fill="black" stroke="black" points="279.836,-41.5006 270.807,-35.9562 274.407,-45.9206 279.836,-41.5006"/>
</g>
<!-- startedRounds&#45;&gt;status -->
<g id="edge16" class="edge"><title>startedRounds&#45;&gt;status</title>
<path fill="none" stroke="black" d="M338.634,-73.4647C355.604,-62.7632 378.218,-48.502 396.049,-37.2572"/>
<polygon fill="black" stroke="black" points="398.291,-39.9813 404.883,-31.6866 394.557,-34.0604 398.291,-39.9813"/>
</g>
</g>
</svg>
